<svg width="20" height="19" viewBox="0 0 20 19" fill="none" xmlns="http://www.w3.org/2000/svg">
<path d="M18 9.47076V16.5199C18 17.8874 16.9028 19 15.5541 19H10V2C10.4593 2 10.9186 2.17436 11.2681 2.52269L17.8318 9.06431C17.9393 9.17143 18 9.31768 18 9.47076Z" fill="#FFC10E" fill-opacity="0.5"/>
<path d="M2 9.47076V16.5199C2 17.8874 3.09725 19 4.44589 19H10V2C9.54072 2 9.08145 2.17436 8.73193 2.52269L2.16824 9.06431C2.06069 9.17143 2 9.31768 2 9.47076Z" fill="#49BCE2" fill-opacity="0.8"/>
<path d="M19.8321 10.5722C19.7173 10.6886 19.5657 10.7472 19.4142 10.7472C19.2657 10.7472 19.1177 10.6913 19.0036 10.5792L10.5008 2.22256C10.3625 2.08662 10.1812 2.01904 9.99999 2.01904C9.81874 2.01904 9.63749 2.08662 9.49921 2.22256L0.996361 10.5792C0.765892 10.8062 0.394798 10.8026 0.167845 10.5722C-0.0587174 10.3413 -0.0555924 9.97021 0.175267 9.74326L8.67773 1.38662C9.04218 1.02842 9.52109 0.849121 9.99999 0.849121C10.4789 0.849121 10.9578 1.02842 11.3223 1.38662L19.8247 9.74326C20.0556 9.97021 20.0587 10.3413 19.8321 10.5722Z" fill="#6E6E6E"/>
<path d="M14.0313 10.6004V12.9391C14.0313 13.1547 13.8567 13.3297 13.6406 13.3297H11.5601V15.4105C11.5601 15.6262 11.3851 15.8012 11.1695 15.8012H8.83084C8.61521 15.8012 8.44021 15.6262 8.44021 15.4105V13.3297H6.35931C6.1433 13.3297 5.96869 13.1547 5.96869 12.9391V10.6004C5.96869 10.3848 6.1433 10.2098 6.35931 10.2098H8.44021V8.12891C8.44021 7.91328 8.61521 7.73828 8.83084 7.73828H11.1695C11.3852 7.73828 11.5602 7.91328 11.5602 8.12891V10.2098H13.6407C13.8567 10.2098 14.0313 10.3848 14.0313 10.6004Z" fill="#FF6769"/>
<path d="M14.0313 10.6004V12.9391C14.0313 13.1547 13.8567 13.3297 13.6407 13.3297H11.5602V15.4105C11.5602 15.6262 11.3852 15.8012 11.1695 15.8012H10V7.73828H11.1695C11.3852 7.73828 11.5602 7.91328 11.5602 8.12891V10.2098H13.6407C13.8567 10.2098 14.0313 10.3848 14.0313 10.6004Z" fill="#FF0C6C"/>
<path d="M19.8321 10.5722C19.7173 10.6886 19.5657 10.7472 19.4142 10.7472C19.2657 10.7472 19.1177 10.6913 19.0036 10.5792L10.5008 2.22256C10.3625 2.08662 10.1812 2.01904 10 2.01904V0.849121C10.4789 0.849121 10.9578 1.02842 11.3223 1.38662L19.8247 9.74326C20.0556 9.97021 20.0587 10.3413 19.8321 10.5722Z" fill="#5A5A5A"/>
</svg>
