<svg width="17" height="16" viewBox="0 0 17 16" fill="none" xmlns="http://www.w3.org/2000/svg">
<path d="M8.98999 0C4.5684 0 0.98999 3.578 0.98999 8C0.98999 12.4215 4.56799 16 8.98999 16C13.4116 16 16.99 12.422 16.99 8C16.99 3.57841 13.412 0 8.98999 0ZM8.75327 11.7443C8.30046 11.7443 7.95296 11.3652 7.95296 10.9335C7.95296 10.4912 8.31099 10.1227 8.75327 10.1227C9.19558 10.1227 9.56408 10.4912 9.56408 10.9335C9.56408 11.3652 9.20605 11.7443 8.75327 11.7443ZM9.95371 7.648C9.37455 8.10081 9.36399 8.41672 9.36399 8.96428C9.36399 9.16441 9.25868 9.39606 8.74271 9.39606C8.31093 9.39606 8.16355 9.23809 8.16355 8.69053C8.16355 7.78491 8.56371 7.35316 8.86908 7.08991C9.21658 6.79503 9.8063 6.46863 9.8063 5.9C9.8063 5.41556 9.38508 5.18391 8.85855 5.18391C7.78446 5.18391 8.01615 5.99478 7.44746 5.99478C7.16315 5.99478 6.81565 5.80519 6.81565 5.39453C6.81565 4.82591 7.46852 3.98344 8.89015 3.98344C10.238 3.98344 11.1331 4.73112 11.1331 5.72097C11.1331 6.71081 10.238 7.42687 9.95371 7.648Z" fill="#606060"/>
</svg>
